{
  "source": "C:\\Users\\Peter\\Desktop\\stuff\\MIUN\\quantitative_research\\video_compression\\videos\\UVG\\YachtRide_1920x1080_120fps_420_8bit_YUV.y4m",
  "output": "C:\\Users\\Peter\\Desktop\\stuff\\MIUN\\quantitative_research\\video_compression\\compressed_videos\\UVG\\vp9\\12\\YachtRide_1920x1080_120fps_420_8bit_YUV_vp9.webm",
  "codec": "vp9",
  "ok": "[yuv4mpegpipe @ 0000026a1f3454c0] Stream #0: not enough frames to estimate rate; consider increasing probesize\nInput #0, yuv4mpegpipe, from 'C:\\Users\\Peter\\Desktop\\stuff\\MIUN\\quantitative_research\\video_compression\\videos\\UVG\\YachtRide_1920x1080_120fps_420_8bit_YUV.y4m':\n  Duration: 00:00:05.00, start: 0.000000, bitrate: 2985989 kb/s\n  Stream #0:0: Video: rawvideo (I420 / 0x30323449), yuv420p(progressive), 1920x1080, 120 fps, 120 tbr, 120 tbn\n[out#0/webm @ 0000026a1f349480] Codec AVOption b:a (set bitrate (in bits/s)) has not been used for any stream. The most likely reason is either wrong type (e.g. a video option with no video streams) or that it is a private option of some decoder which was not actually used for any stream.\nStream mapping:\n  Stream #0:0 -> #0:0 (rawvideo (native) -> vp9 (libvpx-vp9))\nPress [q] to stop, [?] for help\n[libvpx-vp9 @ 0000026a1f34c4c0] v1.15.2-100-g40561f514\nOutput #0, webm, to 'C:\\Users\\Peter\\Desktop\\stuff\\MIUN\\quantitative_research\\video_compression\\compressed_videos\\UVG\\vp9\\12\\YachtRide_1920x1080_120fps_420_8bit_YUV_vp9.webm':\n  Metadata:\n    encoder         : Lavf62.3.100\n  Stream #0:0: Video: vp9, yuv420p(tv, progressive), 1920x1080, q=2-31, 12000 kb/s, 120 fps, 1k tbn\n    Metadata:\n      encoder         : Lavc62.11.100 libvpx-vp9\n    Side data:\n      cpb: bitrate max/min/avg: 0/0/0 buffer size: 12000000 vbv_delay: N/A\nframe=    1 fps=0.0 q=16.0 size=       0KiB time=00:00:00.00 bitrate= 461.8kbits/s speed=0.016x elapsed=0:00:00.52    \nframe=    6 fps=5.8 q=48.0 size=       0KiB time=00:00:00.05 bitrate=  77.0kbits/s speed=0.048x elapsed=0:00:01.04    \nframe=   11 fps=7.1 q=46.0 size=       0KiB time=00:00:00.09 bitrate=  42.0kbits/s speed=0.0588x elapsed=0:00:01.55    \nframe=   15 fps=7.2 q=46.0 size=       0KiB time=00:00:00.12 bitrate=  30.8kbits/s speed=0.0596x elapsed=0:00:02.09    \nframe=   20 fps=7.5 q=45.0 size=       0KiB time=00:00:00.16 bitrate=  23.1kbits/s speed=0.0621x elapsed=0:00:02.68    \nframe=   24 fps=7.4 q=46.0 size=       0KiB time=00:00:00.20 bitrate=  19.2kbits/s speed=0.0618x elapsed=0:00:03.23    \nframe=   28 fps=7.4 q=47.0 size=       0KiB time=00:00:00.23 bitrate=  16.5kbits/s speed=0.0617x elapsed=0:00:03.77    \nframe=   31 fps=7.2 q=29.0 size=       0KiB time=00:00:00.25 bitrate=  14.9kbits/s speed=0.0598x elapsed=0:00:04.31    \nframe=   35 fps=7.2 q=47.0 size=       0KiB time=00:00:00.29 bitrate=  13.2kbits/s speed=0.0601x elapsed=0:00:04.85    \nframe=   38 fps=7.1 q=48.0 size=       0KiB time=00:00:00.31 bitrate=  12.2kbits/s speed=0.0588x elapsed=0:00:05.38    \nframe=   42 fps=7.1 q=48.0 size=       0KiB time=00:00:00.35 bitrate=  11.0kbits/s speed=0.0593x elapsed=0:00:05.90    \nframe=   45 fps=7.0 q=48.0 size=       0KiB time=00:00:00.37 bitrate=  10.3kbits/s speed=0.0584x elapsed=0:00:06.42    \nframe=   49 fps=7.1 q=47.0 size=       0KiB time=00:00:00.40 bitrate=   9.4kbits/s speed=0.0588x elapsed=0:00:06.94    \nframe=   52 fps=7.0 q=47.0 size=       0KiB time=00:00:00.43 bitrate=   8.9kbits/s speed=0.0581x elapsed=0:00:07.45    \nframe=   56 fps=7.0 q=47.0 size=       0KiB time=00:00:00.46 bitrate=   8.2kbits/s speed=0.0585x elapsed=0:00:07.97    \nframe=   59 fps=6.9 q=48.0 size=       0KiB time=00:00:00.49 bitrate=   7.8kbits/s speed=0.0579x elapsed=0:00:08.49    \nframe=   63 fps=7.0 q=47.0 size=       0KiB time=00:00:00.52 bitrate=   7.3kbits/s speed=0.0582x elapsed=0:00:09.02    \nframe=   66 fps=6.9 q=48.0 size=       0KiB time=00:00:00.55 bitrate=   7.0kbits/s speed=0.0575x elapsed=0:00:09.57    \nframe=   71 fps=7.0 q=47.0 size=       0KiB time=00:00:00.59 bitrate=   6.5kbits/s speed=0.0586x elapsed=0:00:10.10    \nframe=   74 fps=6.9 q=35.0 size=       0KiB time=00:00:00.61 bitrate=   6.2kbits/s speed=0.0579x elapsed=0:00:10.65    \nframe=   78 fps=7.0 q=47.0 size=       0KiB time=00:00:00.65 bitrate=   5.9kbits/s speed=0.0582x elapsed=0:00:11.17    \nframe=   82 fps=7.0 q=47.0 size=       0KiB time=00:00:00.68 bitrate=   5.6kbits/s speed=0.0585x elapsed=0:00:11.68    \nframe=   86 fps=7.0 q=47.0 size=       0KiB time=00:00:00.71 bitrate=   5.4kbits/s speed=0.0586x elapsed=0:00:12.23    \nframe=   89 fps=7.0 q=47.0 size=       0KiB time=00:00:00.74 bitrate=   5.2kbits/s speed=0.058x elapsed=0:00:12.77    \nframe=   93 fps=7.0 q=46.0 size=       0KiB time=00:00:00.77 bitrate=   5.0kbits/s speed=0.0583x elapsed=0:00:13.30    \nframe=   97 fps=7.0 q=45.0 size=       0KiB time=00:00:00.80 bitrate=   4.8kbits/s speed=0.0585x elapsed=0:00:13.81    \nframe=  101 fps=7.0 q=47.0 size=       0KiB time=00:00:00.84 bitrate=   4.6kbits/s speed=0.0587x elapsed=0:00:14.34    \nframe=  105 fps=7.0 q=46.0 size=       0KiB time=00:00:00.87 bitrate=   4.4kbits/s speed=0.0586x elapsed=0:00:14.94    \nframe=  108 fps=7.0 q=47.0 size=       0KiB time=00:00:00.90 bitrate=   4.3kbits/s speed=0.0581x elapsed=0:00:15.50    \nframe=  112 fps=7.0 q=46.0 size=       0KiB time=00:00:00.93 bitrate=   4.1kbits/s speed=0.0583x elapsed=0:00:16.01    \nframe=  115 fps=7.0 q=46.0 size=       0KiB time=00:00:00.95 bitrate=   4.0kbits/s speed=0.058x elapsed=0:00:16.53    \nframe=  119 fps=7.0 q=46.0 size=       0KiB time=00:00:00.99 bitrate=   3.9kbits/s speed=0.0582x elapsed=0:00:17.04    \nframe=  123 fps=7.0 q=33.0 size=       0KiB time=00:00:01.02 bitrate=   3.8kbits/s speed=0.0584x elapsed=0:00:17.56    \nframe=  127 fps=7.0 q=46.0 size=       0KiB time=00:00:01.05 bitrate=   3.6kbits/s speed=0.0585x elapsed=0:00:18.10    \nframe=  131 fps=7.0 q=44.0 size=    1280KiB time=00:00:01.09 bitrate=9605.3kbits/s speed=0.0586x elapsed=0:00:18.63    \nframe=  135 fps=7.0 q=46.0 size=    1280KiB time=00:00:01.12 bitrate=9320.7kbits/s speed=0.0586x elapsed=0:00:19.18    \nframe=  139 fps=7.0 q=45.0 size=    1280KiB time=00:00:01.15 bitrate=9052.5kbits/s speed=0.0587x elapsed=0:00:19.73    \nframe=  142 fps=7.0 q=46.0 size=    1280KiB time=00:00:01.18 bitrate=8861.2kbits/s speed=0.0584x elapsed=0:00:20.26    \nframe=  146 fps=7.0 q=45.0 size=    1280KiB time=00:00:01.21 bitrate=8618.4kbits/s speed=0.0585x elapsed=0:00:20.79    \nframe=  149 fps=7.0 q=46.0 size=    1280KiB time=00:00:01.24 bitrate=8444.9kbits/s speed=0.0582x elapsed=0:00:21.33    \nframe=  153 fps=7.0 q=43.0 size=    1280KiB time=00:00:01.27 bitrate=8224.1kbits/s speed=0.0583x elapsed=0:00:21.85    \nframe=  157 fps=7.0 q=44.0 size=    1280KiB time=00:00:01.30 bitrate=8014.6kbits/s speed=0.0585x elapsed=0:00:22.37    \nframe=  160 fps=7.0 q=45.0 size=    1280KiB time=00:00:01.33 bitrate=7864.3kbits/s speed=0.0582x elapsed=0:00:22.91    \nframe=  164 fps=7.0 q=45.0 size=    1280KiB time=00:00:01.36 bitrate=7672.5kbits/s speed=0.0583x elapsed=0:00:23.42    \nframe=  168 fps=7.0 q=45.0 size=    1280KiB time=00:00:01.40 bitrate=7489.8kbits/s speed=0.0583x elapsed=0:00:24.01    \nframe=  172 fps=7.0 q=45.0 size=    1280KiB time=00:00:01.43 bitrate=7315.6kbits/s speed=0.0583x elapsed=0:00:24.57    \nframe=  176 fps=7.0 q=45.0 size=    1280KiB time=00:00:01.46 bitrate=7149.4kbits/s speed=0.0584x elapsed=0:00:25.11    \nframe=  179 fps=7.0 q=45.0 size=    1280KiB time=00:00:01.49 bitrate=7029.6kbits/s speed=0.0582x elapsed=0:00:25.65    \nframe=  183 fps=7.0 q=44.0 size=    1280KiB time=00:00:01.52 bitrate=6875.9kbits/s speed=0.0582x elapsed=0:00:26.18    \nframe=  187 fps=7.0 q=45.0 size=    1280KiB time=00:00:01.55 bitrate=6728.8kbits/s speed=0.0583x elapsed=0:00:26.73    \nframe=  191 fps=7.0 q=45.0 size=    1280KiB time=00:00:01.59 bitrate=6587.9kbits/s speed=0.0583x elapsed=0:00:27.29    \nframe=  194 fps=7.0 q=45.0 size=    1280KiB time=00:00:01.61 bitrate=6486.0kbits/s speed=0.0581x elapsed=0:00:27.82    \nframe=  198 fps=7.0 q=47.0 size=    1280KiB time=00:00:01.65 bitrate=6355.0kbits/s speed=0.0582x elapsed=0:00:28.37    \nframe=  201 fps=7.0 q=48.0 size=    1280KiB time=00:00:01.67 bitrate=6260.2kbits/s speed=0.0579x elapsed=0:00:28.90    \nframe=  205 fps=7.0 q=47.0 size=    1280KiB time=00:00:01.70 bitrate=6138.0kbits/s speed=0.058x elapsed=0:00:29.43    \nframe=  208 fps=6.9 q=48.0 size=    1280KiB time=00:00:01.73 bitrate=6049.5kbits/s speed=0.0579x elapsed=0:00:29.96    \nframe=  212 fps=7.0 q=47.0 size=    1280KiB time=00:00:01.76 bitrate=5935.3kbits/s speed=0.058x elapsed=0:00:30.46    \nframe=  216 fps=7.0 q=35.0 size=    1280KiB time=00:00:01.79 bitrate=5852.5kbits/s speed=0.0578x elapsed=0:00:31.00    \nframe=  220 fps=7.0 q=48.0 size=    1280KiB time=00:00:01.83 bitrate=5719.5kbits/s speed=0.0582x elapsed=0:00:31.52    \nframe=  223 fps=6.9 q=35.0 size=    1280KiB time=00:00:01.85 bitrate=5642.6kbits/s speed=0.0579x elapsed=0:00:32.09    \nframe=  227 fps=7.0 q=48.0 size=    1280KiB time=00:00:01.89 bitrate=5543.1kbits/s speed=0.058x elapsed=0:00:32.62    \nframe=  231 fps=7.0 q=48.0 size=    1280KiB time=00:00:01.92 bitrate=5447.1kbits/s speed=0.058x elapsed=0:00:33.16    \nframe=  234 fps=6.9 q=48.0 size=    1280KiB time=00:00:01.95 bitrate=5377.3kbits/s speed=0.0579x elapsed=0:00:33.68    \nframe=  238 fps=7.0 q=48.0 size=    1280KiB time=00:00:01.98 bitrate=5286.9kbits/s speed=0.058x elapsed=0:00:34.22    \nframe=  242 fps=7.0 q=48.0 size=    1280KiB time=00:00:02.01 bitrate=5199.5kbits/s speed=0.058x elapsed=0:00:34.76    \nframe=  246 fps=7.0 q=47.0 size=    1280KiB time=00:00:02.05 bitrate=5115.0kbits/s speed=0.0581x elapsed=0:00:35.31    \nframe=  250 fps=7.0 q=48.0 size=    1280KiB time=00:00:02.08 bitrate=5033.2kbits/s speed=0.0581x elapsed=0:00:35.85    \nframe=  253 fps=7.0 q=48.0 size=    1280KiB time=00:00:02.10 bitrate=4973.5kbits/s speed=0.0579x elapsed=0:00:36.40    \nframe=  257 fps=7.0 q=35.0 size=    1280KiB time=00:00:02.14 bitrate=4896.1kbits/s speed=0.058x elapsed=0:00:36.94    \nframe=  261 fps=7.0 q=48.0 size=    3072KiB time=00:00:02.17 bitrate=11570.5kbits/s speed=0.058x elapsed=0:00:37.49    \nframe=  265 fps=7.0 q=48.0 size=    3072KiB time=00:00:02.20 bitrate=11395.8kbits/s speed=0.0581x elapsed=0:00:38.03    \nframe=  269 fps=7.0 q=48.0 size=    3072KiB time=00:00:02.24 bitrate=11226.4kbits/s speed=0.0581x elapsed=0:00:38.58    \nframe=  272 fps=7.0 q=49.0 size=    3072KiB time=00:00:02.26 bitrate=11102.6kbits/s speed=0.058x elapsed=0:00:39.10    \nframe=  276 fps=7.0 q=48.0 size=    3072KiB time=00:00:02.30 bitrate=10941.7kbits/s speed=0.058x elapsed=0:00:39.62    \nframe=  279 fps=6.9 q=48.0 size=    3072KiB time=00:00:02.32 bitrate=10824.0kbits/s speed=0.0578x elapsed=0:00:40.19    \nframe=  283 fps=6.9 q=48.0 size=    3072KiB time=00:00:02.35 bitrate=10671.0kbits/s speed=0.0579x elapsed=0:00:40.75    \nframe=  286 fps=6.9 q=48.0 size=    3072KiB time=00:00:02.38 bitrate=10559.1kbits/s speed=0.0577x elapsed=0:00:41.31    \nframe=  290 fps=6.9 q=48.0 size=    3072KiB time=00:00:02.41 bitrate=10413.4kbits/s speed=0.0578x elapsed=0:00:41.83    \nframe=  293 fps=6.9 q=48.0 size=    3072KiB time=00:00:02.44 bitrate=10306.8kbits/s speed=0.0576x elapsed=0:00:42.37    \nframe=  297 fps=6.9 q=48.0 size=    3072KiB time=00:00:02.47 bitrate=10168.0kbits/s speed=0.0577x elapsed=0:00:42.90    \nframe=  300 fps=6.9 q=48.0 size=    3072KiB time=00:00:02.50 bitrate=10066.3kbits/s speed=0.0576x elapsed=0:00:43.41    \nframe=  304 fps=6.9 q=47.0 size=    3072KiB time=00:00:02.53 bitrate=9933.9kbits/s speed=0.0576x elapsed=0:00:43.95    \nframe=  307 fps=6.9 q=48.0 size=    3072KiB time=00:00:02.55 bitrate=9836.8kbits/s speed=0.0575x elapsed=0:00:44.46    \nframe=  311 fps=6.9 q=48.0 size=    3072KiB time=00:00:02.59 bitrate=9710.3kbits/s speed=0.0576x elapsed=0:00:44.98    \nframe=  314 fps=6.9 q=48.0 size=    3072KiB time=00:00:02.61 bitrate=9617.5kbits/s speed=0.0575x elapsed=0:00:45.52    \nframe=  317 fps=6.9 q=48.0 size=    3072KiB time=00:00:02.64 bitrate=9526.5kbits/s speed=0.0573x elapsed=0:00:46.07    \nframe=  321 fps=6.9 q=48.0 size=    3072KiB time=00:00:02.67 bitrate=9407.8kbits/s speed=0.0574x elapsed=0:00:46.59    \nframe=  324 fps=6.9 q=48.0 size=    3072KiB time=00:00:02.70 bitrate=9320.7kbits/s speed=0.0573x elapsed=0:00:47.12    \nframe=  328 fps=6.9 q=49.0 size=    3072KiB time=00:00:02.73 bitrate=9207.0kbits/s speed=0.0574x elapsed=0:00:47.65    \nframe=  331 fps=6.9 q=48.0 size=    3072KiB time=00:00:02.75 bitrate=9123.6kbits/s speed=0.0572x elapsed=0:00:48.18    \nframe=  335 fps=6.9 q=48.0 size=    3072KiB time=00:00:02.79 bitrate=9014.6kbits/s speed=0.0573x elapsed=0:00:48.71    \nframe=  338 fps=6.9 q=48.0 size=    3072KiB time=00:00:02.81 bitrate=8934.6kbits/s speed=0.0572x elapsed=0:00:49.22    \nframe=  342 fps=6.9 q=48.0 size=    3072KiB time=00:00:02.85 bitrate=8830.1kbits/s speed=0.0573x elapsed=0:00:49.75    \nframe=  345 fps=6.9 q=48.0 size=    3072KiB time=00:00:02.87 bitrate=8753.3kbits/s speed=0.0572x elapsed=0:00:50.30    \nframe=  348 fps=6.8 q=35.0 size=    3072KiB time=00:00:02.90 bitrate=8677.9kbits/s speed=0.0571x elapsed=0:00:50.81    \nframe=  352 fps=6.9 q=48.0 size=    3072KiB time=00:00:02.93 bitrate=8579.3kbits/s speed=0.0571x elapsed=0:00:51.35    \nframe=  355 fps=6.8 q=35.0 size=    3072KiB time=00:00:02.95 bitrate=8506.8kbits/s speed=0.057x elapsed=0:00:51.87    \nframe=  359 fps=6.9 q=48.0 size=    3072KiB time=00:00:02.99 bitrate=8412.0kbits/s speed=0.0571x elapsed=0:00:52.39    \nframe=  362 fps=6.8 q=35.0 size=    3072KiB time=00:00:03.01 bitrate=8342.3kbits/s speed=0.057x elapsed=0:00:52.92    \nframe=  366 fps=6.8 q=48.0 size=    3072KiB time=00:00:03.05 bitrate=8251.1kbits/s speed=0.0571x elapsed=0:00:53.44    \nframe=  369 fps=6.8 q=36.0 size=    3072KiB time=00:00:03.07 bitrate=8184.0kbits/s speed=0.057x elapsed=0:00:53.97    \nframe=  373 fps=6.8 q=48.0 size=    3072KiB time=00:00:03.10 bitrate=8096.2kbits/s speed=0.057x elapsed=0:00:54.49    \nframe=  376 fps=6.8 q=36.0 size=    3072KiB time=00:00:03.13 bitrate=8031.6kbits/s speed=0.0569x elapsed=0:00:55.06    \nframe=  380 fps=6.8 q=48.0 size=    3072KiB time=00:00:03.16 bitrate=7947.1kbits/s speed=0.0569x elapsed=0:00:55.60    \nframe=  383 fps=6.8 q=48.0 size=    3072KiB time=00:00:03.19 bitrate=7884.9kbits/s speed=0.0569x elapsed=0:00:56.13    \nframe=  386 fps=6.8 q=50.0 size=    4608KiB time=00:00:03.21 bitrate=11735.4kbits/s speed=0.0568x elapsed=0:00:56.65    \nframe=  390 fps=6.8 q=49.0 size=    4608KiB time=00:00:03.25 bitrate=11615.0kbits/s speed=0.0568x elapsed=0:00:57.18    \nframe=  393 fps=6.8 q=49.0 size=    4608KiB time=00:00:03.27 bitrate=11526.3kbits/s speed=0.0568x elapsed=0:00:57.70    \nframe=  396 fps=6.8 q=49.0 size=    4608KiB time=00:00:03.30 bitrate=11439.0kbits/s speed=0.0567x elapsed=0:00:58.22    \nframe=  398 fps=6.8 q=49.0 size=    4608KiB time=00:00:03.31 bitrate=11381.5kbits/s speed=0.0565x elapsed=0:00:58.75    \nframe=  402 fps=6.8 q=49.0 size=    4608KiB time=00:00:03.35 bitrate=11268.3kbits/s speed=0.0565x elapsed=0:00:59.27    \nframe=  405 fps=6.8 q=49.0 size=    4608KiB time=00:00:03.37 bitrate=11184.8kbits/s speed=0.0564x elapsed=0:00:59.80    \nframe=  408 fps=6.8 q=48.0 size=    4608KiB time=00:00:03.40 bitrate=11102.6kbits/s speed=0.0563x elapsed=0:01:00.34    \nframe=  412 fps=6.8 q=49.0 size=    4608KiB time=00:00:03.43 bitrate=10994.8kbits/s speed=0.0564x elapsed=0:01:00.88    \nframe=  415 fps=6.8 q=48.0 size=    4608KiB time=00:00:03.45 bitrate=10915.3kbits/s speed=0.0563x elapsed=0:01:01.43    \nframe=  418 fps=6.7 q=49.0 size=    4608KiB time=00:00:03.48 bitrate=10837.0kbits/s speed=0.0562x elapsed=0:01:01.97    \nframe=  421 fps=6.7 q=49.0 size=    4608KiB time=00:00:03.50 bitrate=10759.7kbits/s speed=0.0561x elapsed=0:01:02.49    \nframe=  424 fps=6.7 q=49.0 size=    4608KiB time=00:00:03.53 bitrate=10683.6kbits/s speed=0.0561x elapsed=0:01:03.01    \nframe=  427 fps=6.7 q=35.0 size=    4608KiB time=00:00:03.55 bitrate=10608.5kbits/s speed=0.056x elapsed=0:01:03.54    \nframe=  430 fps=6.7 q=46.0 size=    4608KiB time=00:00:03.58 bitrate=10534.5kbits/s speed=0.0559x elapsed=0:01:04.07    \nframe=  434 fps=6.7 q=47.0 size=    4608KiB time=00:00:03.61 bitrate=10437.4kbits/s speed=0.056x elapsed=0:01:04.62    \nframe=  437 fps=6.7 q=48.0 size=    4608KiB time=00:00:03.64 bitrate=10365.8kbits/s speed=0.0559x elapsed=0:01:05.16    \nframe=  440 fps=6.7 q=48.0 size=    4608KiB time=00:00:03.66 bitrate=10295.1kbits/s speed=0.0558x elapsed=0:01:05.69    \nframe=  442 fps=6.7 q=32.0 size=    4608KiB time=00:00:03.68 bitrate=10248.5kbits/s speed=0.0556x elapsed=0:01:06.21    \nframe=  446 fps=6.7 q=48.0 size=    4608KiB time=00:00:03.71 bitrate=10156.6kbits/s speed=0.0557x elapsed=0:01:06.75    \nframe=  449 fps=6.7 q=49.0 size=    4608KiB time=00:00:03.74 bitrate=10088.7kbits/s speed=0.0556x elapsed=0:01:07.33    \nframe=  452 fps=6.7 q=49.0 size=    4608KiB time=00:00:03.76 bitrate=10021.8kbits/s speed=0.0555x elapsed=0:01:07.88    \nframe=  455 fps=6.7 q=49.0 size=    4608KiB time=00:00:03.79 bitrate=9955.7kbits/s speed=0.0554x elapsed=0:01:08.40    \nframe=  458 fps=6.6 q=50.0 size=    4608KiB time=00:00:03.81 bitrate=9890.5kbits/s speed=0.0554x elapsed=0:01:08.95    \nframe=  461 fps=6.6 q=49.0 size=    4608KiB time=00:00:03.84 bitrate=9826.1kbits/s speed=0.0553x elapsed=0:01:09.50    \nframe=  464 fps=6.6 q=49.0 size=    4608KiB time=00:00:03.86 bitrate=9762.6kbits/s speed=0.0552x elapsed=0:01:10.04    \nframe=  467 fps=6.6 q=50.0 size=    4608KiB time=00:00:03.89 bitrate=9699.9kbits/s speed=0.0551x elapsed=0:01:10.66    \nframe=  470 fps=6.6 q=50.0 size=    4608KiB time=00:00:03.91 bitrate=9638.0kbits/s speed=0.055x elapsed=0:01:11.20    \nframe=  472 fps=6.6 q=30.0 size=    4608KiB time=00:00:03.93 bitrate=9597.1kbits/s speed=0.0548x elapsed=0:01:11.72    \nframe=  475 fps=6.6 q=49.0 size=    4608KiB time=00:00:03.95 bitrate=9536.5kbits/s speed=0.0548x elapsed=0:01:12.25    \nframe=  478 fps=6.6 q=50.0 size=    4608KiB time=00:00:03.98 bitrate=9476.7kbits/s speed=0.0547x elapsed=0:01:12.81    \nframe=  480 fps=6.5 q=50.0 size=    4608KiB time=00:00:04.00 bitrate=9437.2kbits/s speed=0.0545x elapsed=0:01:13.38    \nframe=  483 fps=6.5 q=51.0 size=    4608KiB time=00:00:04.02 bitrate=9378.6kbits/s speed=0.0545x elapsed=0:01:13.90    \nframe=  486 fps=6.5 q=51.0 size=    4608KiB time=00:00:04.05 bitrate=9320.7kbits/s speed=0.0544x elapsed=0:01:14.42    \nframe=  489 fps=6.5 q=50.0 size=    4608KiB time=00:00:04.07 bitrate=9263.5kbits/s speed=0.0543x elapsed=0:01:14.98    \nframe=  492 fps=6.5 q=51.0 size=    4608KiB time=00:00:04.10 bitrate=9207.0kbits/s speed=0.0543x elapsed=0:01:15.55    \nframe=  495 fps=6.5 q=51.0 size=    4608KiB time=00:00:04.12 bitrate=9151.2kbits/s speed=0.0542x elapsed=0:01:16.10    \nframe=  498 fps=6.5 q=51.0 size=    4608KiB time=00:00:04.15 bitrate=9096.1kbits/s speed=0.0541x elapsed=0:01:16.64    \nframe=  501 fps=6.5 q=51.0 size=    4608KiB time=00:00:04.17 bitrate=9041.6kbits/s speed=0.0541x elapsed=0:01:17.17    \nframe=  504 fps=6.5 q=50.0 size=    4608KiB time=00:00:04.20 bitrate=8987.8kbits/s speed=0.054x elapsed=0:01:17.76    \nframe=  507 fps=6.5 q=51.0 size=    4608KiB time=00:00:04.22 bitrate=8934.6kbits/s speed=0.0539x elapsed=0:01:18.45    \nframe=  511 fps=6.5 q=51.0 size=    4608KiB time=00:00:04.25 bitrate=8864.7kbits/s speed=0.0538x elapsed=0:01:19.08    \nframe=  514 fps=6.4 q=50.0 size=    6144KiB time=00:00:04.28 bitrate=11750.6kbits/s speed=0.0537x elapsed=0:01:19.70    \nframe=  517 fps=6.4 q=49.0 size=    6144KiB time=00:00:04.30 bitrate=11682.4kbits/s speed=0.0536x elapsed=0:01:20.31    \nframe=  520 fps=6.4 q=50.0 size=    6144KiB time=00:00:04.33 bitrate=11615.0kbits/s speed=0.0536x elapsed=0:01:20.86    \nframe=  523 fps=6.4 q=50.0 size=    6144KiB time=00:00:04.35 bitrate=11548.4kbits/s speed=0.0536x elapsed=0:01:21.38    \nframe=  526 fps=6.4 q=51.0 size=    6144KiB time=00:00:04.38 bitrate=11482.5kbits/s speed=0.0535x elapsed=0:01:21.92    \nframe=  528 fps=6.4 q=31.0 size=    6144KiB time=00:00:04.40 bitrate=11439.0kbits/s speed=0.0533x elapsed=0:01:22.48    \nframe=  530 fps=6.4 q=49.0 size=    6144KiB time=00:00:04.41 bitrate=11395.8kbits/s speed=0.0532x elapsed=0:01:23.01    \nframe=  533 fps=6.4 q=50.0 size=    6144KiB time=00:00:04.44 bitrate=11331.7kbits/s speed=0.0532x elapsed=0:01:23.53    \nframe=  536 fps=6.4 q=50.0 size=    6144KiB time=00:00:04.46 bitrate=11268.3kbits/s speed=0.0531x elapsed=0:01:24.06    \nframe=  540 fps=6.4 q=51.0 size=    6144KiB time=00:00:04.50 bitrate=11184.8kbits/s speed=0.0532x elapsed=0:01:24.57    \nframe=  542 fps=6.4 q=51.0 size=    6144KiB time=00:00:04.51 bitrate=11143.5kbits/s speed=0.0531x elapsed=0:01:25.11    \nframe=  546 fps=6.4 q=49.0 size=    6144KiB time=00:00:04.55 bitrate=11061.9kbits/s speed=0.0531x elapsed=0:01:25.64    \nframe=  549 fps=6.4 q=49.0 size=    6144KiB time=00:00:04.57 bitrate=11001.5kbits/s speed=0.0531x elapsed=0:01:26.18    \nframe=  552 fps=6.4 q=50.0 size=    6144KiB time=00:00:04.60 bitrate=10941.7kbits/s speed=0.053x elapsed=0:01:26.73    \nframe=  556 fps=6.4 q=50.0 size=    6144KiB time=00:00:04.63 bitrate=10862.9kbits/s speed=0.0531x elapsed=0:01:27.24    \nframe=  558 fps=6.4 q=30.0 size=    6144KiB time=00:00:04.65 bitrate=10824.0kbits/s speed=0.053x elapsed=0:01:27.80    \nframe=  561 fps=6.4 q=49.0 size=    6144KiB time=00:00:04.67 bitrate=10766.1kbits/s speed=0.0529x elapsed=0:01:28.32    \nframe=  565 fps=6.4 q=50.0 size=    6144KiB time=00:00:04.70 bitrate=10689.9kbits/s speed=0.053x elapsed=0:01:28.85    \nframe=  568 fps=6.4 q=51.0 size=    6144KiB time=00:00:04.73 bitrate=10633.4kbits/s speed=0.0529x elapsed=0:01:29.39    \nframe=  572 fps=6.4 q=51.0 size=    6144KiB time=00:00:04.76 bitrate=10559.1kbits/s speed=0.053x elapsed=0:01:29.92    \nframe=  575 fps=6.4 q=49.0 size=    6144KiB time=00:00:04.79 bitrate=10504.0kbits/s speed=0.053x elapsed=0:01:30.47    \nframe=  576 fps=6.3 q=50.0 size=    6144KiB time=00:00:04.80 bitrate=10485.8kbits/s speed=0.0527x elapsed=0:01:31.01    \nframe=  576 fps=6.3 q=50.0 size=    6144KiB time=00:00:04.80 bitrate=10485.8kbits/s speed=0.0524x elapsed=0:01:31.52    \nframe=  576 fps=6.3 q=50.0 size=    6144KiB time=00:00:04.80 bitrate=10485.8kbits/s speed=0.0521x elapsed=0:01:32.05    \nframe=  576 fps=6.2 q=50.0 size=    6144KiB time=00:00:04.80 bitrate=10485.8kbits/s speed=0.0519x elapsed=0:01:32.57    \nframe=  576 fps=6.2 q=50.0 size=    6144KiB time=00:00:04.80 bitrate=10485.8kbits/s speed=0.0516x elapsed=0:01:33.10    \nframe=  576 fps=6.2 q=50.0 size=    6144KiB time=00:00:04.80 bitrate=10485.8kbits/s speed=0.0513x elapsed=0:01:33.62    \nframe=  576 fps=6.1 q=50.0 size=    6144KiB time=00:00:04.80 bitrate=10485.8kbits/s speed=0.051x elapsed=0:01:34.17    \n[out#0/webm @ 0000026a1f349480] video:7274KiB audio:0KiB subtitle:0KiB other streams:0KiB global headers:0KiB muxing overhead: 0.065784%\nframe=  600 fps=6.3 q=50.0 Lsize=    7279KiB time=00:00:05.00 bitrate=11925.6kbits/s speed=0.0529x elapsed=0:01:34.49    \n",
  "seconds": 94.66521215438843,
  "probe_out": {}
}